<svg width="97" height="97" viewBox="0 0 97 97" fill="none" xmlns="http://www.w3.org/2000/svg">
<g clip-path="url(#clip0_21_1512)">
<path d="M96.0299 49.3439C95.9911 50.0326 95.962 50.731 95.9135 51.4197C95.0211 64.0976 89.9092 74.787 80.6263 83.4394C74.3407 89.2885 66.9396 93.0812 58.5491 94.9339C54.446 95.836 50.2847 96.1755 46.0943 95.9427C34.8423 95.3025 24.9871 91.2382 16.6257 83.6819C9.28281 77.0374 4.48131 68.8506 2.20181 59.2088C1.12511 54.6401 0.766206 50.0035 1.07661 45.3281C1.61981 37.3644 3.98661 29.9827 8.27401 23.2412C13.8127 14.5112 21.3981 8.20621 31.0011 4.32621C34.9393 2.73541 39.023 1.74601 43.2425 1.27071C44.2416 1.16401 45.2504 1.11551 46.2495 1.03791C46.395 1.02821 46.5308 0.999106 46.6763 0.979706H50.2944C50.4011 0.999106 50.5175 1.02821 50.6242 1.02821C52.7485 1.10581 54.8534 1.34831 56.9486 1.72661C64.0005 3.01671 70.4413 5.75211 76.2516 9.95221C81.6351 13.8419 86.0292 18.6337 89.4048 24.347C93.2848 30.9042 95.4576 37.9852 95.9232 45.59C95.962 46.2593 96.0008 46.9286 96.0396 47.5882V49.3439H96.0299ZM92.276 48.5C92.2857 24.3858 72.6626 4.74331 48.5484 4.72391C24.376 4.70451 4.70441 24.3373 4.69471 48.4806C4.68501 72.6239 24.3178 92.2567 48.4805 92.2761C72.6238 92.2858 92.276 72.6433 92.276 48.5Z" fill="#CC2222"/>
<path d="M65.0384 36.8988C65.0093 39.4596 64.6698 41.8555 64.0684 44.2126C64.0102 44.4648 64.0199 44.6491 64.1848 44.8819C65.8144 47.0256 65.8435 49.3245 64.7668 51.701C64.2236 52.9038 63.4379 53.9126 62.3806 54.7177C62.2933 54.7856 62.206 54.902 62.1963 55.0087C61.818 57.2591 60.8577 59.2767 59.7907 61.2555C59.6355 61.5465 59.49 61.8666 59.4512 62.177C59.3542 62.9045 59.3348 63.6417 59.2766 64.3789C59.2572 64.6505 59.3736 64.8057 59.6161 64.9221C61.2263 65.6981 62.8268 66.4838 64.437 67.2598C66.9493 68.482 69.4422 69.743 71.712 71.392C72.4007 71.8964 73.0506 72.4396 73.6811 73.0022C74.5153 73.7491 74.5735 74.9228 73.8557 75.6891C73.1282 76.4651 71.9836 76.4942 71.1591 75.7279C69.4907 74.1856 67.5701 73.0313 65.5719 72.0128C63.2148 70.81 60.8189 69.6848 58.4521 68.5111C58.0156 68.2977 57.5985 68.0358 57.1717 67.7836C56.1241 67.1434 55.7264 66.1249 55.61 64.9609C55.4451 63.4186 55.6682 61.9151 56.0174 60.4116C56.0465 60.2855 56.1241 60.1691 56.1823 60.0527C57.1329 58.4425 58.0156 56.7935 58.423 54.9505C58.5685 54.2909 58.5297 53.5731 58.52 52.8941C58.52 52.5934 58.5394 52.4285 58.8595 52.3315C59.199 52.2345 59.5579 52.1181 59.8489 51.9241C61.0323 51.1772 61.6725 50.0617 61.7792 48.6843C61.8471 47.8404 61.4494 47.1711 60.7898 46.6667C60.4988 46.4436 60.1981 46.2302 59.8877 46.0362C59.7228 45.9295 59.7034 45.8325 59.7713 45.6482C60.3921 43.9022 60.8286 42.098 61.0905 40.255C61.43 37.8203 61.527 35.3856 60.8577 32.98C60.1205 30.3513 58.4812 28.615 55.8331 27.8584C55.3384 27.7129 54.8631 27.4607 54.3878 27.2376C52.4672 26.3549 50.4787 25.6565 48.3738 25.3558C45.6287 24.9581 43 25.2685 40.6332 26.8399C39.6438 27.4898 38.829 28.3337 38.1015 29.2649C37.1509 30.4677 36.3652 31.7481 36.0645 33.2904C35.7347 34.9685 35.7056 36.666 35.8123 38.3635C35.9772 40.9146 36.4622 43.4075 37.0345 45.8907C37.0927 46.1332 37.0539 46.2884 36.8114 46.3951C36.6756 46.4436 36.5592 46.5503 36.4331 46.6085C35.2982 47.1614 34.949 48.112 35.1139 49.276C35.2594 50.3236 35.6668 51.2645 36.3458 52.0987C36.8017 52.6613 37.4128 52.9038 38.1015 53.0299C38.9842 53.1948 39.0424 53.2142 38.9648 54.0969C38.7999 56.1824 39.8378 57.7538 41.0503 59.267C41.1958 59.4513 41.3413 59.6647 41.4286 59.8878C42.0979 61.6241 42.4762 63.4089 42.3695 65.2907C42.2822 66.7263 41.642 67.7836 40.4683 68.5693C39.023 69.5296 37.4419 70.2377 35.8511 70.9167C33.2515 72.0419 30.6422 73.1477 28.0426 74.2729C27.5964 74.4669 27.1502 74.6997 26.7428 74.9616C26.4518 75.1459 26.1802 75.3981 25.9668 75.6697C25.5206 76.2226 24.8125 76.4845 24.085 76.3002C23.3478 76.1159 22.8143 75.5242 22.7076 74.787C22.6009 74.0692 22.8531 73.4678 23.3284 72.944C24.1044 72.0904 25.0938 71.5278 26.122 71.0719C28.4888 70.0146 30.875 69.0252 33.2418 67.9776C34.7841 67.2986 36.2876 66.542 37.8299 65.8533C38.5186 65.5429 38.8193 65.0579 38.6738 64.3207C38.4992 63.4186 38.3052 62.5068 38.1112 61.6047C38.0918 61.498 38.0045 61.4107 37.9366 61.3234C36.7241 59.7811 35.7444 58.1127 35.3661 56.163C35.3467 56.0757 35.2788 55.9787 35.2012 55.9302C33.2612 54.7759 32.2427 52.962 31.6607 50.8765C31.0593 48.7522 31.3115 46.7346 32.6889 44.9401C32.8732 44.6976 32.9314 44.4939 32.8635 44.1932C32.3397 41.5257 31.9808 38.8388 32.0293 36.1131C32.0681 33.8918 32.2912 31.6899 33.3679 29.7111C35.5989 25.6274 38.7708 22.6883 43.485 21.7377C45.6966 21.2915 47.9082 21.4176 50.1004 21.8735C52.2344 22.3197 54.252 23.0763 56.2211 23.9978C56.7934 24.2597 57.4045 24.4537 57.9962 24.6865C61.333 25.996 63.3894 28.4598 64.3982 31.8548C64.8735 33.5426 65.0287 35.2692 65.0384 36.8988Z" fill="#CC2222"/>
</g>
<defs>
<clipPath id="clip0_21_1512">
<rect width="97" height="97" fill="white"/>
</clipPath>
</defs>
</svg>
