<svg width="96" height="109" viewBox="0 0 96 109" fill="none" xmlns="http://www.w3.org/2000/svg">
<g clip-path="url(#clip0_23_1607)">
<path d="M63.4946 64.5723L47.682 46.5039L31.8691 64.5723L34.6803 67.383L45.9249 54.5343V98.7015H49.4388V54.5343L60.6834 67.383L63.4946 64.5723Z" fill="#CC2222"/>
<path d="M84.2269 40.0793C82.47 30.0414 74.3877 22.4123 65.2516 22.4123C62.089 22.4123 59.2778 23.2154 56.8181 24.8215C52.6016 15.988 44.5195 10.3667 35.3832 10.3667C21.679 10.3667 10.7857 22.814 10.7857 38.4732C10.7857 38.8748 10.7857 39.6777 10.7857 40.0793C4.46038 43.2917 0.243652 50.1174 0.243652 58.5493C0.243652 69.7919 7.97432 78.6253 17.8133 78.6253H42.4109V74.6101H17.8133C10.0827 74.6101 3.75759 67.3827 3.75759 58.5493C3.75759 50.9205 8.32562 44.4959 14.6509 42.89C14.2994 41.284 14.2994 40.0793 14.2994 38.4732C14.2994 25.2231 23.7871 14.3819 35.383 14.3819C44.5193 14.3819 52.2499 21.2079 55.4126 30.4428C58.2237 28.0336 61.7377 26.4276 65.2516 26.4276C73.685 26.4276 80.3614 33.6549 81.0642 42.89C87.038 44.4961 91.606 50.9205 91.606 58.5493C91.606 67.3827 85.281 74.6101 77.5503 74.6101H52.9527V78.6253H77.5503C87.3893 78.6253 95.12 69.7919 95.12 58.5493C95.12 50.1174 90.552 42.89 84.2269 40.0793Z" fill="#CC2222"/>
</g>
<defs>
<clipPath id="clip0_23_1607">
<rect width="94.8763" height="108.411" fill="white" transform="translate(0.243652 0.328735)"/>
</clipPath>
</defs>
</svg>
